<svg width="917" height="1020" viewBox="0 0 917 1020" fill="none" xmlns="http://www.w3.org/2000/svg">
<g filter="url(#filter0_d_204_56)">
<path fill-rule="evenodd" clip-rule="evenodd" d="M386.071 1008.84L366.095 1010.35C355.891 1011.12 350 1001.68 346.675 990.362C344.285 982.226 342.492 974.134 340.105 966.009C337.436 958.228 331.493 947.174 322.109 947.301L294.813 947.674C284.589 947.812 275.012 944.492 272.204 932.984L266.704 910.454C263.216 896.162 263.719 883.129 284.676 882.989L305.012 882.853C311.685 882.809 311.996 869.591 308.819 861.524L300.12 831.916C297.616 823.916 291.65 819.967 283.464 818.618L257.041 818.978C249.08 817.917 239.583 824.486 241.329 830.314L248.057 852.778C254.992 875.928 244.674 880.865 232.003 881.825L212.027 883.338C201.823 884.111 195.932 874.669 192.607 863.352L183.728 833.137C180.741 822.968 170.431 820.654 163.283 820.256L140.859 820.561C130.636 820.7 121.058 817.38 118.249 805.871L112.75 783.341C109.262 769.05 109.764 756.017 130.723 755.876L255.08 755.05C271.518 756.124 275.366 750.908 272.566 737.475L212.551 525.067C210.039 518.845 207.226 517.794 201.203 523.052L92.1958 618.215C75.3945 632.881 68.2869 622.831 63.7163 608.965L56.5108 587.104C52.8309 575.936 58.7671 566.533 66.9993 559.436C72.9175 554.333 78.8038 549.257 84.7134 544.163C90.2587 538.855 97.6693 529.567 94.759 519.122L86.2964 488.743C83.1269 477.365 82.97 465.674 91.5128 459.096L108.236 446.22C118.845 438.05 129.621 434.716 135.999 458.083L142.189 480.759C144.221 488.2 155.088 484.595 160.716 478.635L183.392 459.084C189.018 452.044 190.375 444.379 187.737 436.131L179.922 408.079C178.407 398.869 170.213 390.225 165.984 393.918L149.682 408.149C132.881 422.815 125.773 412.766 121.203 398.898L113.997 377.038C110.316 365.871 116.253 356.469 124.485 349.369L146.464 330.42C153.861 324.043 152.664 311.835 150.853 303.732L143.9 278.774C140.73 267.396 140.574 255.706 149.117 249.128L165.84 236.25C176.448 228.082 187.224 224.747 193.603 248.115L235.142 400.299C238.127 409.263 243.725 407.912 247.29 404.407L400.759 279.163C406.24 274.646 406.843 266.023 398.627 259.163L292.309 170.387C275.247 156.14 281.25 145.148 291.136 135.818L306.718 121.111C314.679 113.598 324.141 117.343 332.429 124.351C338.387 129.389 344.314 134.4 350.263 139.431C356.274 143.991 366.094 149.414 373.702 142.981L395.83 124.271C404.118 117.263 413.58 113.517 421.541 121.031L437.123 135.738C447.008 145.067 453.012 156.06 435.95 170.307L419.395 184.131C413.962 188.667 420.213 199.68 426.781 204.133L445.018 219.553C455.108 229.19 463.589 227.91 471.097 220.012L490.043 203.992C497.072 199.491 501.602 187.718 497.306 184.131L480.751 170.307C463.689 156.06 469.693 145.067 479.578 135.738L495.16 121.031C503.12 113.517 512.583 117.263 520.871 124.271L542.998 142.981C550.445 149.278 560.011 144.216 566.05 139.722L584.228 124.351C592.517 117.343 601.979 113.598 609.939 121.111L625.522 135.818C635.407 145.148 641.411 156.14 624.349 170.387L514.3 262.278C508.766 267.826 508.723 272.699 513.002 277.039L654.996 397.105C667.474 407.961 674.572 405.428 678.789 395.727L719.629 243.715C723.398 229.684 735.592 219.477 745.372 233.132L754.013 245.197C760.579 254.369 768.271 263.362 764.371 278.189L757.001 306.202C756.137 313.786 756.703 322.798 762.839 327.769L785.287 345.95C793.694 352.759 799.865 361.954 796.468 373.243L789.818 395.343C785.6 409.362 778.748 419.653 761.585 405.574L744.932 391.913C736.496 384.994 729.134 409.687 730.059 411.619L729.549 410.554L723.521 433.469C719.753 446.381 718.992 451.772 728.364 459.144C736.459 465.511 744.155 472.496 751.976 479.11C757.727 482.723 769.059 487.293 770.683 481.292L776.826 458.599C783.159 435.214 793.941 438.518 804.566 446.657L821.315 459.487C829.871 466.041 829.738 477.733 826.591 489.12L818.191 519.523C815.974 527.543 819.833 534.865 824.259 540.23L849.134 561.264C859.877 570.348 858.365 582.95 857.843 594.901L857.155 610.626C856.376 628.42 841.391 628.871 831.161 620.33L713.811 522.343C705.731 516.169 700.512 520.041 697.599 532.002L645.293 730.827C641.266 746.004 644.439 753.356 654.873 752.816L786.097 748.69C807.048 748.031 807.912 761.039 804.823 775.456L799.954 798.183C797.467 809.793 787.986 813.475 777.764 813.725C770.415 813.904 763.106 814.085 755.768 814.264C748.623 814.862 737.994 817.456 735.232 827.957L727.198 858.494C724.189 869.932 718.564 879.594 708.344 879.21L688.336 878.458C675.645 877.981 665.196 873.44 671.483 850.039L677.584 827.329C679.585 819.878 668.928 815.495 661.394 816.572L637.673 817.153C626.123 818.446 621.128 824.241 617.743 835.548L610.971 861.291C607.676 869.842 610.12 882.432 615.394 882.267L635.723 881.627C656.674 880.969 657.538 893.976 654.449 908.393L649.579 931.121C647.092 942.731 637.613 946.413 627.389 946.664L600.099 947.332C590.914 947.555 585.884 958.341 583.376 966.186L576.777 991.274C573.767 1002.71 568.141 1012.37 557.921 1011.99L537.914 1011.24C525.223 1010.76 514.774 1006.22 521.061 982.817L559.617 839.303C564.284 823.836 563.881 818.64 555.023 818.929C487.449 818.524 429.943 818.121 362.369 817.716C356.688 819.362 355.963 824.878 358.029 832.569L402.126 979.788C409.059 1002.94 398.742 1007.88 386.071 1008.84ZM752.439 963.454L747.722 988.416C745.801 998.579 736.711 1007.26 727.519 1007.72L706.818 1008.74C697.627 1009.2 691.677 1001.25 693.598 991.091L698.315 966.129C700.235 955.966 709.326 947.281 718.518 946.826L739.218 945.804C748.41 945.349 754.359 953.292 752.439 963.454ZM166.209 963.454L170.926 988.416C172.846 998.579 181.937 1007.26 191.129 1007.72L211.829 1008.74C221.021 1009.2 226.971 1001.25 225.05 991.091L220.333 966.129C218.412 955.966 209.322 947.281 200.13 946.826L179.429 945.804C170.238 945.349 164.289 953.292 166.209 963.454ZM31.8437 354.48L13.4437 368.256C5.95402 373.864 2.1164 386.845 4.91572 397.103L11.2193 420.206C14.0186 430.464 22.4363 434.27 29.9273 428.661L48.3265 414.885C55.8164 409.278 59.6545 396.297 56.8546 386.038L50.5509 362.937C47.751 352.677 39.3339 348.873 31.8437 354.48ZM885.156 354.48L903.556 368.256C911.046 373.864 914.884 386.845 912.084 397.103L905.781 420.206C902.981 430.464 894.563 434.27 887.073 428.661L868.673 414.885C861.184 409.278 857.345 396.297 860.145 386.038L866.449 362.937C869.249 352.677 877.666 348.873 885.156 354.48ZM427.13 20.2254L444.445 4.64272C451.493 -1.70123 463.227 -1.52075 470.52 5.04315L486.946 19.8251C494.239 26.3894 494.44 36.9493 487.391 43.2933L470.076 58.8761C463.027 65.2201 451.294 65.0393 444 58.4756L427.575 43.6937C420.281 37.1298 420.081 26.5693 427.13 20.2254ZM359.27 754.579L551.775 755.029C583.277 754.74 583.256 752.009 589.969 726.329L649.763 503.764C655.323 482.486 657.624 472.486 636.329 457.329L478.299 325.374C466.247 315.016 452.762 313.055 436.58 326.881L278.245 456.956C256.903 473.562 258.195 482.925 264.74 507.542L326.575 725.994C334.857 750.856 339.625 753.445 359.27 754.579Z" fill="white"/>
</g>
<defs>
<filter id="filter0_d_204_56" x="0" y="0" width="917" height="1020" filterUnits="userSpaceOnUse" color-interpolation-filters="sRGB">
<feFlood flood-opacity="0" result="BackgroundImageFix"/>
<feColorMatrix in="SourceAlpha" type="matrix" values="0 0 0 0 0 0 0 0 0 0 0 0 0 0 0 0 0 0 127 0" result="hardAlpha"/>
<feOffset dy="4"/>
<feGaussianBlur stdDeviation="2"/>
<feComposite in2="hardAlpha" operator="out"/>
<feColorMatrix type="matrix" values="0 0 0 0 0 0 0 0 0 0 0 0 0 0 0 0 0 0 0.25 0"/>
<feBlend mode="normal" in2="BackgroundImageFix" result="effect1_dropShadow_204_56"/>
<feBlend mode="normal" in="SourceGraphic" in2="effect1_dropShadow_204_56" result="shape"/>
</filter>
</defs>
</svg>
