<svg width="917" height="973" viewBox="0 0 917 973" fill="none" xmlns="http://www.w3.org/2000/svg">
<g filter="url(#filter0_d_204_56)">
<path fill-rule="evenodd" clip-rule="evenodd" d="M386.071 961.982L366.095 963.425C355.891 964.163 350 955.159 346.675 944.367C344.285 936.609 342.492 928.893 340.105 921.145C337.436 913.725 331.493 903.185 322.109 903.306L294.813 903.662C284.589 903.793 275.012 900.627 272.204 889.654L266.704 868.17C263.216 854.542 263.719 842.114 284.676 841.981L305.012 841.851C311.685 841.809 311.996 829.205 308.819 821.512L300.12 793.28C297.616 785.651 291.65 781.886 283.464 780.599L257.041 780.943C249.08 779.931 239.583 786.194 241.329 791.752L248.057 813.173C254.992 835.248 244.674 839.955 232.003 840.871L212.027 842.313C201.823 843.051 195.932 834.047 192.607 823.255L183.728 794.444C180.741 784.747 170.431 782.541 163.283 782.161L140.859 782.452C130.636 782.585 121.058 779.419 118.249 768.444L112.75 746.961C109.262 733.333 109.764 720.906 130.723 720.771L255.08 719.983C271.518 721.008 275.366 716.034 272.566 703.225L212.551 500.682C210.039 494.749 207.226 493.747 201.203 498.76L92.1958 589.503C75.3945 603.488 68.2869 593.905 63.7163 580.683L56.5108 559.837C52.8309 549.188 58.7671 540.222 66.9993 533.454C72.9175 528.589 78.8038 523.748 84.7134 518.89C90.2587 513.83 97.6693 504.972 94.759 495.012L86.2964 466.045C83.1269 455.195 82.97 444.047 91.5128 437.774L108.236 425.496C118.845 417.706 129.621 414.526 135.999 436.809L142.189 458.431C144.221 465.526 155.088 462.089 160.716 456.406L183.392 437.763C189.018 431.05 190.375 423.741 187.737 415.876L179.922 389.127C178.407 380.344 170.213 372.102 165.984 375.623L149.682 389.194C132.881 403.178 125.773 393.596 121.203 380.373L113.997 359.527C110.316 348.879 116.253 339.913 124.485 333.144L146.464 315.074C153.861 308.994 152.664 297.353 150.853 289.626L143.9 265.827C140.73 254.978 140.574 243.83 149.117 237.558L165.84 225.278C176.448 217.489 187.224 214.31 193.603 236.592L235.142 381.708C238.127 390.256 243.725 388.967 247.29 385.625L400.759 266.198C406.24 261.891 406.843 253.669 398.627 247.127L292.309 162.474C275.247 148.888 281.25 138.407 291.136 129.51L306.718 115.486C314.679 108.322 324.141 111.893 332.429 118.576C338.387 123.38 344.314 128.158 350.263 132.956C356.274 137.304 366.094 142.475 373.702 136.341L395.83 118.499C404.118 111.817 413.58 108.245 421.541 115.41L437.123 129.434C447.008 138.33 453.012 148.812 435.95 162.397L419.395 175.579C413.962 179.905 420.213 190.406 426.781 194.653L445.018 209.357C455.108 218.546 463.589 217.326 471.097 209.794L490.043 194.518C497.072 190.226 501.602 179 497.306 175.579L480.751 162.397C463.689 148.812 469.693 138.33 479.578 129.434L495.16 115.41C503.12 108.245 512.583 111.817 520.871 118.499L542.998 136.341C550.445 142.345 560.011 137.519 566.05 133.233L584.228 118.576C592.517 111.893 601.979 108.322 609.939 115.486L625.522 129.51C635.407 138.407 641.411 148.888 624.349 162.474L514.3 250.097C508.766 255.387 508.723 260.034 513.002 264.172L654.996 378.662C667.474 389.014 674.572 386.599 678.789 377.348L719.629 232.396C723.398 219.017 735.592 209.284 745.372 222.305L754.013 233.81C760.579 242.555 768.271 251.131 764.371 265.269L757.001 291.981C756.137 299.213 756.703 307.807 762.839 312.546L785.287 329.883C793.694 336.376 799.865 345.144 796.468 355.908L789.818 376.982C785.6 390.35 778.748 400.163 761.585 386.738L744.932 373.712C736.496 367.114 729.134 390.66 730.059 392.502L729.549 391.486L723.521 413.337C719.753 425.65 718.992 430.79 728.364 437.82C736.459 443.892 744.155 450.552 751.976 456.859C757.727 460.304 769.059 464.662 770.683 458.94L776.826 437.301C783.159 415.001 793.941 418.152 804.566 425.914L821.315 438.148C829.871 444.397 829.738 455.546 826.591 466.404L818.191 495.395C815.974 503.042 819.833 510.025 824.259 515.14L849.134 535.197C859.877 543.86 858.365 555.876 857.843 567.272L857.155 582.266C856.376 599.235 841.391 599.665 831.161 591.52L713.811 498.084C705.731 492.197 700.512 495.889 697.599 507.295L645.293 696.885C641.266 711.358 644.439 718.368 654.873 717.853L786.097 713.918C807.048 713.29 807.912 725.695 804.823 739.441L799.954 761.113C797.467 772.184 787.986 775.695 777.764 775.933C770.415 776.104 763.106 776.277 755.768 776.447C748.623 777.018 737.994 779.491 735.232 789.505L727.198 818.624C724.189 829.53 718.564 838.743 708.344 838.377L688.336 837.66C675.645 837.205 665.196 832.875 671.483 810.56L677.584 788.906C679.585 781.801 668.928 777.621 661.394 778.648L637.673 779.202C626.123 780.435 621.128 785.961 617.743 796.743L610.971 821.29C607.676 829.444 610.12 841.45 615.394 841.292L635.723 840.682C656.674 840.054 657.538 852.457 654.449 866.205L649.579 887.877C647.092 898.948 637.613 902.459 627.389 902.698L600.099 903.335C590.914 903.548 585.884 913.833 583.376 921.314L576.777 945.236C573.767 956.144 568.141 965.356 557.921 964.989L537.914 964.272C525.223 963.818 514.774 959.489 521.061 937.172L559.617 800.323C564.284 785.574 563.881 780.62 555.023 780.895C487.449 780.51 429.943 780.125 362.369 779.74C356.688 781.309 355.963 786.569 358.029 793.902L402.126 934.284C409.059 956.36 398.742 961.067 386.071 961.982ZM752.439 918.709L747.722 942.512C745.801 952.202 736.711 960.484 727.519 960.917L706.818 961.893C697.627 962.326 691.677 954.752 693.598 945.062L698.315 921.259C700.235 911.569 709.326 903.286 718.518 902.853L739.218 901.878C748.41 901.445 754.359 909.018 752.439 918.709ZM166.209 918.709L170.926 942.512C172.846 952.202 181.937 960.484 191.129 960.917L211.829 961.893C221.021 962.326 226.971 954.752 225.05 945.062L220.333 921.259C218.412 911.569 209.322 903.286 200.13 902.853L179.429 901.878C170.238 901.445 164.289 909.018 166.209 918.709ZM31.8437 338.017L13.4437 351.153C5.95402 356.501 2.1164 368.879 4.91572 378.661L11.2193 400.69C14.0186 410.472 22.4363 414.101 29.9273 408.753L48.3265 395.617C55.8164 390.27 59.6545 377.892 56.8546 368.109L50.5509 346.081C47.751 336.298 39.3339 332.67 31.8437 338.017ZM885.156 338.017L903.556 351.153C911.046 356.501 914.884 368.879 912.084 378.661L905.781 400.69C902.981 410.472 894.563 414.101 887.073 408.753L868.673 395.617C861.184 390.27 857.345 377.892 860.145 368.109L866.449 346.081C869.249 336.298 877.666 332.67 885.156 338.017ZM427.13 19.2861L444.445 4.42714C451.493 -1.62219 463.227 -1.45009 470.52 4.80896L486.946 18.9044C494.239 25.1638 494.44 35.2333 487.391 41.2826L470.076 56.1418C463.027 62.1911 451.294 62.0187 444 55.7599L427.575 41.6645C420.281 35.4054 420.081 25.3354 427.13 19.2861ZM359.27 719.535L551.775 719.963C583.277 719.688 583.256 717.083 589.969 692.596L649.763 480.368C655.323 460.078 657.624 450.543 636.329 436.089L478.299 310.262C466.247 300.386 452.762 298.516 436.58 311.7L278.245 435.734C256.903 451.569 258.195 460.496 264.74 483.97L326.575 692.276C334.857 715.984 339.625 718.453 359.27 719.535Z" fill="black"/>
</g>
<defs>
<filter id="filter0_d_204_56" x="0" y="0" width="917" height="973" filterUnits="userSpaceOnUse" color-interpolation-filters="sRGB">
<feFlood flood-opacity="0" result="BackgroundImageFix"/>
<feColorMatrix in="SourceAlpha" type="matrix" values="0 0 0 0 0 0 0 0 0 0 0 0 0 0 0 0 0 0 127 0" result="hardAlpha"/>
<feOffset dy="4"/>
<feGaussianBlur stdDeviation="2"/>
<feComposite in2="hardAlpha" operator="out"/>
<feColorMatrix type="matrix" values="0 0 0 0 0 0 0 0 0 0 0 0 0 0 0 0 0 0 0.25 0"/>
<feBlend mode="normal" in2="BackgroundImageFix" result="effect1_dropShadow_204_56"/>
<feBlend mode="normal" in="SourceGraphic" in2="effect1_dropShadow_204_56" result="shape"/>
</filter>
</defs>
</svg>
