<svg width="386" height="527" viewBox="0 0 386 527" fill="none" xmlns="http://www.w3.org/2000/svg">
<g filter="url(#filter0_d_204_54)">
<path d="M91.7197 28.7473C85.2313 34.0713 77.7378 38.1078 70.0177 41.4008C55.1704 47.734 31.9754 62.8865 14.0338 98.6368C11.4512 103.782 11.5083 109.651 14.1857 114.738V114.738C16.1458 118.468 17.3616 122.931 15.6387 126.777C9.06829 141.441 -0.412297 168.229 0.0138805 200.028C0.120407 208.022 5.45581 214.897 13.2907 217.134V217.134C14.3583 217.44 14.9093 218.611 14.4593 219.626C7.68644 234.904 -4.15748 266.385 5.54806 303.738C6.65619 308.005 10.0819 311.342 14.4884 312.445C15.5251 312.702 16.5722 312.83 17.6141 312.83C19.0604 312.83 20.4874 312.582 21.8341 312.108C23.1584 311.642 24.9428 312.685 25.2112 314.063V314.063C29.8828 338.187 41.8072 381.662 69.161 401.789C71.4384 403.465 74.1002 404.278 76.7335 404.278C80.367 404.278 83.9487 402.732 86.417 399.762V399.762C86.664 399.465 87.1428 399.57 87.236 399.945C90.9791 414.998 100.527 439.221 124.879 465.975C127.257 468.589 130.618 470.052 134.189 470.052C134.432 470.052 134.675 470.045 134.919 470.03V470.03C140.063 469.745 146.978 470.011 149.626 474.43L153.004 480.07C156.354 485.661 162.332 489 169.001 489C175.668 489 181.646 485.661 184.995 480.07L188.376 474.427C191.023 470.008 197.934 469.745 203.077 470.03V470.03C203.322 470.045 203.567 470.052 203.811 470.052C207.381 470.052 210.741 468.589 213.119 465.978C237.472 439.221 247.019 414.996 250.765 399.942C250.857 399.569 251.335 399.464 251.58 399.761V399.761C254.049 402.732 257.633 404.278 261.265 404.278C263.899 404.278 266.56 403.465 268.836 401.789C296.193 381.662 308.115 338.187 312.79 314.063V314.063C313.056 312.685 314.841 311.642 316.165 312.109C317.511 312.582 318.937 312.83 320.383 312.83C321.425 312.83 322.475 312.702 323.512 312.445C327.917 311.342 331.344 308.005 332.452 303.738C342.157 266.383 330.309 234.899 323.539 219.623C323.09 218.61 323.64 217.441 324.705 217.136V217.136C332.542 214.896 337.88 208.021 337.986 200.03C338.411 168.232 328.931 141.446 322.361 126.781C320.637 122.934 321.852 118.467 323.816 114.736V114.736C326.493 109.649 326.546 103.781 323.964 98.6368C306.022 62.8869 282.829 47.7342 267.982 41.401C260.262 38.1078 252.769 34.0713 246.28 28.7473C232.143 17.1468 205.134 5.15792e-06 169.001 5.15792e-06C132.866 5.15792e-06 105.857 17.1469 91.7197 28.7473ZM146.47 51.9517L129.602 47.7389V47.7389C116.448 44.4539 113.056 28.1314 125.341 22.3981C137.388 16.7755 152.154 12.425 169.001 12.425C184.595 12.425 198.406 16.1529 209.929 21.1667C223.509 27.0756 219.859 44.8758 205.491 48.4638V48.4638L191.526 51.9517C184.156 53.792 176.576 54.7122 168.997 54.7122C161.418 54.7122 153.839 53.792 146.47 51.9517ZM243.183 107.327L214.691 87.7596L194.008 73.5559C191.254 71.6639 191.547 68.8604 191.7 68.0474C191.853 67.2331 192.612 64.5091 195.883 63.6935L220.623 57.5143L243.674 51.7588C249.645 50.2677 255.945 49.9446 261.656 52.2389C274.039 57.2133 295.507 70.3105 312.451 104.077C313.258 105.681 313.241 107.507 312.411 109.087C311.592 110.64 310.11 111.703 308.341 112.003L283.763 116.185C280.71 116.704 277.625 116.959 274.546 116.959C263.4 116.959 252.34 113.616 243.183 107.327ZM54.2344 116.185L29.6567 112.003C27.8886 111.703 26.4077 110.64 25.5879 109.087C24.7565 107.507 24.7423 105.681 25.5464 104.077C42.492 70.3082 63.9616 57.2115 76.3453 52.2379C82.0559 49.9444 88.3543 50.2676 94.325 51.7586L120.581 58.3148L142.115 63.6935C145.387 64.5091 146.143 67.2319 146.299 68.0462C146.454 68.8605 146.742 71.6639 143.989 73.5559L123.306 87.7596L94.8143 107.327C85.6609 113.616 74.6003 116.96 63.4567 116.96C60.3752 116.961 57.2899 116.705 54.2344 116.185ZM159.268 154.995L99.9328 129.258C97.2034 128.074 96.6837 125.712 96.585 124.75C96.4902 123.788 96.5265 121.373 98.9649 119.699L130.705 97.9019L151.383 83.7023C151.384 83.7013 151.386 83.7001 151.387 83.6988V83.6988C151.388 83.6975 151.39 83.6964 151.391 83.6953L151.729 83.4637C162.053 76.3719 175.937 76.3656 186.27 83.4637L186.606 83.6954C186.608 83.6964 186.61 83.6973 186.611 83.6987V83.6987C186.612 83.7003 186.613 83.7013 186.615 83.7024L207.293 97.9019L239.032 119.699C241.47 121.373 241.507 123.788 241.412 124.751C241.315 125.712 240.793 128.074 238.067 129.258L230.462 132.555L178.722 154.998C175.631 156.336 172.315 157.006 168.998 157.006C165.678 157.006 162.36 156.335 159.268 154.995ZM240.992 219.662L234.458 214.04C234.454 214.037 234.453 214.034 234.449 214.031L193.316 178.64C193.315 178.639 193.314 178.639 193.313 178.638V178.638C193.313 178.638 193.312 178.637 193.311 178.637L183.24 169.969C182.053 168.947 182.343 167.035 183.78 166.412L183.934 166.346C183.939 166.344 183.944 166.341 183.949 166.34V166.34C183.955 166.339 183.96 166.336 183.965 166.334L243.291 140.601C243.293 140.6 243.295 140.6 243.297 140.599V140.599C243.298 140.598 243.3 140.597 243.301 140.596L257.282 134.532C260.377 133.19 263.623 132.225 266.95 131.659L285.94 128.428C285.95 128.427 285.96 128.426 285.97 128.425V128.425C285.978 128.423 285.986 128.421 285.995 128.42L287.888 128.098C299.417 126.136 311.038 131.84 315.036 142.83C320.229 157.104 325.484 177.26 325.182 199.869C325.147 202.377 323.503 204.528 321.088 205.219L257.828 223.304C256.152 223.783 254.445 224.018 252.756 224.018C248.477 224.018 244.304 222.511 240.992 219.662ZM80.1683 223.304L16.91 205.216C14.4963 204.528 12.8516 202.377 12.8191 199.868C12.528 178.205 17.3396 158.793 22.3107 144.65C26.5697 132.532 39.352 126.268 52.0142 128.422V128.422L52.0428 128.426L71.0469 131.659C74.3729 132.225 77.6186 133.19 80.7138 134.532L148.333 163.859L154.044 166.337V166.337C155.562 166.995 155.868 169.013 154.615 170.092L97.0059 219.662C93.6932 222.511 89.5205 224.017 85.24 224.017C83.5498 224.017 81.8454 223.783 80.1683 223.304ZM158.27 274.332L147.555 266.473L112.755 240.946C109.936 238.879 108.24 235.726 108.101 232.3C107.962 228.873 109.399 225.601 112.046 223.326L153.179 187.934C157.688 184.053 163.344 182.114 169.001 182.114C174.653 182.114 180.309 184.053 184.819 187.933L225.965 223.336C228.601 225.61 230.035 228.878 229.896 232.3C229.76 235.72 228.069 238.865 225.259 240.933L202.104 257.918L179.729 274.33C176.571 276.647 172.786 277.805 169.001 277.805C165.215 277.805 161.43 276.647 158.27 274.332ZM264.844 242.599C262.884 240.564 263.257 238.265 263.509 237.37C263.76 236.474 264.644 234.309 267.393 233.523L272.68 232.01L285.118 228.454C299.598 224.314 312.479 224.195 317.186 238.502V238.502C324.662 261.223 298.724 277.768 282.128 260.541L264.844 242.599ZM20.8111 238.503C25.5181 224.196 38.3997 224.315 52.8808 228.455L54.2162 228.837L70.6134 233.524C73.3571 234.316 74.2379 236.475 74.4886 237.37C74.7394 238.265 75.1148 240.564 73.1557 242.599L71.6618 244.148L71.6605 244.149L69.7404 246.142L55.8692 260.541C39.2743 277.768 13.3356 261.225 20.8111 238.503V238.503ZM242.501 234.741C242.503 234.723 242.522 234.711 242.54 234.717V234.717C242.571 234.727 242.566 234.77 242.534 234.772C242.533 234.772 242.531 234.772 242.53 234.772C242.513 234.773 242.499 234.758 242.501 234.741V234.741ZM95.4655 234.773C95.4315 234.771 95.4255 234.728 95.4579 234.717V234.717C95.4759 234.711 95.4953 234.722 95.4968 234.741V234.741C95.4983 234.759 95.4834 234.774 95.4655 234.773V234.773ZM223.31 345.873C223.302 345.865 223.298 345.858 223.29 345.85L188.166 303.277C188.164 303.274 188.162 303.273 188.161 303.272L181.771 295.528C180.802 294.353 180.376 292.882 180.567 291.39C180.758 289.895 181.546 288.573 182.787 287.664L233.249 250.648C236.458 248.295 240.23 247.143 243.983 247.143C248.754 247.143 253.49 249.007 256.983 252.632L290.786 287.723L291.102 288.051C293.337 290.373 294.452 293.394 294.243 296.564C294.032 299.733 292.525 302.595 289.999 304.621L263.896 325.545L233.578 349.85C233.572 349.855 233.567 349.86 233.561 349.866V349.866C231.237 351.728 227.85 351.378 225.955 349.081L223.31 345.873ZM104.437 349.866C104.43 349.86 104.425 349.855 104.419 349.85L47.9935 304.617C45.4733 302.592 43.9676 299.733 43.7571 296.564C43.5467 293.394 44.6613 290.371 46.8971 288.05L54.8307 279.815L81.027 252.62C87.2692 246.156 97.4619 245.309 104.749 250.648L155.213 287.664C156.454 288.571 157.241 289.896 157.432 291.391C157.624 292.884 157.194 294.353 156.225 295.528L112.041 349.083C110.147 351.379 106.759 351.728 104.437 349.866V349.866ZM160.686 402.933L125.56 368.788C121.328 364.674 120.961 358.152 124.704 353.615L159.829 311.043C162.071 308.324 165.413 306.767 169.001 306.767C172.585 306.767 175.925 308.323 178.168 311.04L196.14 332.824L213.295 353.615C217.037 358.149 216.67 364.671 212.443 368.785L177.305 402.94C175.086 405.091 172.137 406.277 169.001 406.277C165.858 406.277 162.905 405.089 160.686 402.933ZM37.3342 311.838C37.3368 311.837 37.3394 311.838 37.3413 311.84V311.84C37.346 311.845 37.3436 311.853 37.3371 311.854L31.5028 312.916L37.3342 311.838ZM253.18 381.892L241.883 368.304C241.879 368.3 241.874 368.295 241.87 368.29L240.929 367.158C238.983 364.817 239.342 361.356 241.727 359.435L278.206 330.192V330.192C285.633 324.237 296 330.709 293.075 339.768C288.166 354.969 280.978 371.156 270.641 383.002C265.934 388.396 257.756 387.397 253.18 381.892V381.892ZM38.4483 315.029C38.2842 314.236 39.2011 313.683 39.8326 314.189V314.189C39.8352 314.192 39.8378 314.196 39.8417 314.198L96.2706 359.435C98.6571 361.356 99.0156 364.817 97.0696 367.158L92.0849 373.153L84.8204 381.892V381.892C80.2444 387.398 72.065 388.397 67.3581 383.003C50.9332 364.182 42.4601 334.403 38.4483 315.029ZM100.229 398.863C98.0416 390.828 100.76 382.509 106.083 376.105V376.105C107.113 374.869 108.58 374.14 110.216 374.057C111.86 373.954 113.389 374.545 114.548 375.672L157.319 417.244C159.268 419.141 159.537 422.115 157.961 424.312L147.456 438.937L137.047 453.429V453.429C135.571 455.484 132.568 455.649 130.918 453.731C111.869 431.587 103.716 411.67 100.229 398.863ZM200.953 453.431C200.952 453.431 200.953 453.43 200.953 453.43V453.43C200.954 453.429 200.954 453.428 200.954 453.428L184.179 430.074C184.172 430.064 184.164 430.056 184.156 430.047L180.038 424.312C178.459 422.115 178.731 419.141 180.68 417.244L186.357 411.726C186.363 411.719 186.37 411.715 186.375 411.71L221.5 377.566L221.509 377.559L223.45 375.672C224.533 374.618 225.951 374.049 227.471 374.049C227.574 374.049 227.678 374.052 227.785 374.057C229.417 374.14 230.881 374.866 231.91 376.1V376.1C237.25 382.523 240.003 390.86 237.816 398.922C234.262 412.027 225.773 432.584 205.505 455.541C204.65 456.51 203.111 456.434 202.357 455.385L200.953 453.431ZM164.076 473.824L162.884 471.836C156.41 461.03 156.977 447.41 164.325 437.179V437.179C165.406 435.676 167.11 434.812 168.998 434.812C170.884 434.812 172.585 435.671 173.668 437.173V437.173C181.021 447.409 181.587 461.036 175.109 471.847L173.924 473.824C172.438 476.309 169.985 476.575 169.001 476.575C168.015 476.575 165.561 476.309 164.076 473.824Z" fill="black"/>
</g>
<defs>
<filter id="filter0_d_204_54" x="0" y="0" width="385.9" height="526.9" filterUnits="userSpaceOnUse" color-interpolation-filters="sRGB">
<feFlood flood-opacity="0" result="BackgroundImageFix"/>
<feColorMatrix in="SourceAlpha" type="matrix" values="0 0 0 0 0 0 0 0 0 0 0 0 0 0 0 0 0 0 127 0" result="hardAlpha"/>
<feOffset dx="43" dy="33"/>
<feGaussianBlur stdDeviation="2.45"/>
<feComposite in2="hardAlpha" operator="out"/>
<feColorMatrix type="matrix" values="0 0 0 0 0 0 0 0 0 0 0 0 0 0 0 0 0 0 0.25 0"/>
<feBlend mode="normal" in2="BackgroundImageFix" result="effect1_dropShadow_204_54"/>
<feBlend mode="normal" in="SourceGraphic" in2="effect1_dropShadow_204_54" result="shape"/>
</filter>
</defs>
</svg>
