<svg width="1378" height="220" viewBox="0 0 1378 220" fill="none" xmlns="http://www.w3.org/2000/svg">
<path d="M0 -1.07288e-05L0 132H190.948V176H0L0 220H229.137V88H38.1896V44H229.137V-1.07288e-05H0Z" fill="black"/>
<path d="M267.092 -1.07288e-05V44H362.567V220H400.754V44H496.229V-1.07288e-05H267.092Z" fill="black"/>
<path d="M534.888 220H766.837V-1.07288e-05H534.888V220ZM573.546 44H728.181V176H573.546V44Z" fill="black"/>
<path d="M1066.44 -1.07288e-05L1012.02 162.891L957.606 -1.07288e-05H916.316L941.594 75.6643L912.454 162.891L858.037 -1.07288e-05H816.742L890.243 220H934.664L962.241 137.465L989.814 220H1034.24L1107.73 -1.07288e-05H1066.44Z" fill="black"/>
<path d="M1339.45 -1.07288e-05V153.999L1205.78 -1.07288e-05H1148.5L1186.69 44V220H1224.88V88L1339.45 220H1377.64V-1.07288e-05H1339.45Z" fill="black"/>
</svg>
